<svg width="161" height="69" viewBox="0 0 161 69" fill="none" xmlns="http://www.w3.org/2000/svg">
<g clip-path="url(#clip0_12127_4739)">
<path d="M54.807 17.9387C56.2603 21.9611 58.4142 26.1133 61.3207 30.006C64.2273 33.8987 67.8345 37.5318 71.8569 40.646C75.8534 43.7861 80.2392 46.3812 84.599 48.4833C85.663 49.0023 86.8048 49.4953 87.8948 49.9625C88.9847 50.4296 90.0487 50.8967 91.0868 51.286C91.6058 51.4936 92.1248 51.6752 92.6438 51.8829C93.1628 52.0645 93.6819 52.2202 94.2009 52.4019C95.213 52.7652 96.251 53.0247 97.2372 53.3361C107.592 56.2946 118.621 57.2548 129.702 59.3049C131.103 59.5644 132.375 59.798 133.776 59.9796C135.152 60.1613 136.527 60.317 137.929 60.4727C140.705 60.7841 143.534 61.1215 146.337 61.6146C148.932 62.0557 151.761 62.6786 154.434 63.6907C155.757 64.2097 157.055 64.8066 158.197 65.5851C159.338 66.3377 160.325 67.2719 161.025 68.284C159.442 66.3377 156.899 65.0401 154.252 64.2097C151.579 63.3792 148.776 62.9381 146.181 62.6786C143.378 62.3931 140.576 62.2633 137.773 62.1336C136.372 62.0817 134.97 62.0298 133.569 61.926C132.167 61.8481 130.714 61.6924 129.365 61.5367C118.31 60.317 107.254 60.317 96.0694 58.0852C95.0054 57.8516 93.8895 57.644 92.7736 57.3586C92.2027 57.2288 91.6317 57.0731 91.0608 56.9174C90.4899 56.7357 89.919 56.58 89.3221 56.3984C88.1283 56.061 86.9865 55.6458 85.7927 55.2306C84.599 54.7894 83.4312 54.3742 82.2114 53.8811C77.3586 51.9088 72.4279 49.2618 67.8605 45.9141C63.319 42.5664 59.1408 38.518 55.8969 33.9765C52.6271 29.461 50.2915 24.4524 49.0718 19.6515C49.0718 19.6515 49.0199 19.366 48.8901 18.8989C48.7863 18.4058 48.6047 17.7311 48.5009 16.8747C48.1895 15.1879 48.0078 12.9301 48.0337 10.6724C48.0856 8.41461 48.3971 6.18281 48.8901 4.54789C49.3832 2.91296 49.9801 1.87492 50.551 1.90087C51.1219 2.00467 51.4333 3.14652 51.7188 4.72955C52.0043 6.31257 52.3157 8.33676 52.705 10.3091C53.1202 12.2813 53.5873 14.2017 54.0285 15.629C54.2101 16.3297 54.4437 16.9266 54.5734 17.3159C54.7032 17.7311 54.7811 17.9647 54.7811 17.9647L54.807 17.9387Z" fill="white"/>
<path d="M2.36087 18.9241C2.36087 18.9241 2.46468 19.1317 2.90585 19.5729C3.11346 19.7805 3.42487 20.04 3.81414 20.3514C4.22936 20.6369 4.74838 21.0002 5.39716 21.3895C6.69472 22.1421 8.58915 23.0244 11.2102 23.8808C13.8313 24.7372 17.2309 25.5676 21.5128 26.2683C25.7948 26.969 30.5179 27.488 35.1891 28.1108C39.8603 28.7077 44.4277 29.4603 48.4242 30.4724C52.4207 31.4585 55.7684 32.7821 58.104 33.9499C59.2459 34.5208 60.1801 35.0398 60.777 35.4291C61.3998 35.7924 61.7112 36 61.7112 36C61.7112 36 61.4258 35.7405 60.9068 35.2474C60.3877 34.7543 59.5832 34.0796 58.5452 33.2492C56.4431 31.6402 53.2512 29.6679 49.2806 27.9811C45.336 26.2943 40.6908 24.841 36.0196 23.751C31.3224 22.6351 26.5993 21.7787 22.3952 21.0781C18.1911 20.4033 14.8693 19.9103 12.2483 19.5729C9.6272 19.2355 7.68087 19.002 6.2276 18.8982C5.50097 18.8463 4.90409 18.8203 4.41101 18.8203C3.91794 18.8203 3.52868 18.8203 3.24321 18.8203C2.64633 18.8722 2.41277 18.9501 2.41277 18.9501L2.36087 18.9241Z" fill="white"/>
<path d="M40.1693 4.52281C40.87 6.44319 41.4928 8.70095 42.2454 10.9847C42.998 13.2424 43.8544 15.5002 44.6848 17.2908C45.7229 19.6523 47.0464 21.9101 48.7332 24.0381C49.1484 24.5312 49.5636 25.0761 50.0308 25.5692C50.4979 26.0363 50.965 26.5554 51.484 27.0225C51.9771 27.4377 52.4961 27.8789 53.0411 28.32C53.612 28.7093 54.183 29.0986 54.676 29.4878C54.0791 29.3062 53.4304 29.0467 52.7816 28.7872C52.1328 28.4757 51.484 28.1643 50.8872 27.8789C50.2384 27.5415 49.6415 27.1782 48.9927 26.8408C48.3699 26.4775 47.799 26.0623 47.1761 25.699C44.7886 24.064 42.6087 22.1696 40.6105 20.0157C39.0534 18.3807 37.3925 16.0711 36.1469 13.4241C34.9012 10.803 34.1746 7.81861 34.2524 5.24944C34.2524 5.24944 34.3303 4.05568 34.6936 2.88788C35.1607 1.69413 35.9133 0.604176 37.0292 0.656079C38.1451 0.759883 38.8977 1.77198 39.3648 2.68027C39.9098 3.61451 40.1693 4.4709 40.1693 4.4709V4.52281Z" fill="white"/>
<path d="M82.2617 20.6912C82.2617 20.6912 82.08 20.6653 81.7427 20.6912C81.4053 20.7431 80.9122 20.8988 80.2634 21.2621C79.6666 21.6514 78.888 22.2742 78.1614 23.3123C77.4088 24.3244 76.6562 25.7777 76.1113 27.6721C75.5403 29.5665 75.3068 31.7983 75.3587 33.9782C75.4106 36.1581 75.7739 38.3121 76.3189 40.1287C76.8898 41.9712 77.6164 43.4504 78.2393 44.4366C78.5247 44.9296 78.8361 45.293 79.0178 45.5525C79.1995 45.812 79.3033 45.9417 79.3033 45.9417C79.3033 45.9417 79.2773 45.786 79.2254 45.4746C79.1735 45.1632 79.0697 44.748 79.0178 44.177C78.888 43.0871 78.8361 41.556 78.9399 39.8432C79.1994 36.4176 80.2375 32.3433 81.1977 29.1513C82.1319 25.9593 82.5212 24.013 82.5212 22.6635C82.5472 22.0147 82.4953 21.5217 82.4174 21.1843C82.3395 20.8469 82.2617 20.6912 82.2617 20.6912Z" fill="white"/>
<path d="M85.2194 51.8309C85.2194 51.8309 84.9599 52.0125 84.2073 52.272C83.8439 52.4018 83.3509 52.5575 82.7021 52.7132C82.0533 52.8949 81.2488 53.1025 80.2886 53.2841C78.3423 53.7253 75.6693 54.2184 72.0621 54.8931C68.4289 55.5678 63.8615 56.3723 58.0225 57.3325C52.1835 58.2668 45.5919 59.1751 38.9484 59.6162C35.6266 59.8238 32.3049 59.9017 29.061 59.8238C25.8171 59.72 22.703 59.4346 19.7964 58.9934C13.9574 58.1111 9.07858 56.4502 5.75683 55.0229C4.09595 54.2703 2.79839 53.6474 1.942 53.1803C1.08561 52.7132 0.592537 52.4537 0.592537 52.4537C0.592537 52.4537 1.11156 52.6354 2.01986 52.9727C2.92815 53.336 4.30356 53.7513 6.01633 54.2703C9.46784 55.2305 14.3726 56.1907 20.03 56.3723C22.8587 56.4761 25.869 56.4502 28.9831 56.2426C32.0973 56.035 35.2893 55.6716 38.4813 55.2305C44.8653 54.3481 51.3012 53.1025 57.1661 52.1682C63.0311 51.234 67.7542 50.715 71.5171 50.5333C75.2801 50.3517 78.0828 50.5074 80.107 50.715C81.1191 50.8447 81.9495 50.9745 82.5983 51.1042C83.273 51.2599 83.7661 51.3897 84.1554 51.5195C84.9079 51.753 85.1675 51.9087 85.1675 51.9087L85.2194 51.8309Z" fill="white"/>
<path d="M95.7818 54.1654C95.7818 54.1654 95.5741 54.2693 94.9513 54.3212C94.6399 54.3471 94.2506 54.3212 93.7057 54.2693C93.4462 54.2433 93.1607 54.1914 92.8233 54.0876C92.5119 53.9838 92.1486 53.9059 91.7593 53.7243C91.3701 53.5686 90.9548 53.3869 90.5396 53.1274C90.0984 52.8938 89.6832 52.5565 89.2161 52.1932C88.3338 51.4406 87.3736 50.3766 86.621 48.9752C85.8684 47.5738 85.2456 45.8092 85.1158 43.7331C85.038 42.695 85.1158 41.5791 85.2975 40.4373C85.5051 39.2695 85.8944 38.0757 86.4912 36.9079C87.685 34.5463 89.813 32.3664 92.486 31.2505C93.8095 30.6796 95.1849 30.3423 96.5862 30.1865C97.2869 30.1606 97.9876 30.0827 98.6364 30.1346C98.9738 30.1346 99.3111 30.1346 99.6485 30.1865L100.661 30.3163C103.308 30.6796 106.032 31.7436 108.031 33.7159C109.017 34.7021 109.795 35.8958 110.237 37.1674C110.678 38.465 110.756 39.8404 110.47 41.112C110.185 42.3836 109.484 43.4995 108.602 44.278C107.719 45.0566 106.707 45.5237 105.773 45.7313L105.436 45.8351L105.098 45.887C104.865 45.913 104.631 45.9389 104.424 45.9908C103.982 45.9908 103.541 46.0427 103.152 45.9908C102.347 45.9389 101.621 45.8092 100.972 45.6794C99.6744 45.342 98.7142 44.9787 98.0395 44.6933C97.3907 44.4078 97.0274 44.2521 97.0274 44.2521C97.0274 44.2521 97.4167 44.3299 98.0914 44.4857C98.7661 44.6414 99.8042 44.7971 101.05 44.8749C101.673 44.8749 102.373 44.8749 103.1 44.7711C103.463 44.7452 103.827 44.6414 104.19 44.5635C104.372 44.5116 104.553 44.4338 104.735 44.3818L105.02 44.304L105.28 44.1742C106.707 43.5774 107.849 42.2539 107.927 40.6968C108.031 39.1397 107.148 37.4788 105.721 36.4408C104.268 35.3768 102.347 34.8318 100.323 34.7799H99.5706L98.8181 34.8059C98.299 34.8059 97.8319 34.9097 97.3648 34.9616C96.4305 35.1432 95.5482 35.4546 94.7697 35.8439C93.2126 36.6224 92.0707 37.92 91.3441 39.3214C90.9808 40.022 90.7213 40.7746 90.5656 41.5013C90.4099 42.2279 90.3061 42.9286 90.3061 43.6033C90.2542 44.9528 90.5137 46.1465 90.8251 47.1846C91.1624 48.2226 91.5777 49.079 92.0188 49.8056C92.2524 50.143 92.46 50.5063 92.7195 50.7918C92.9271 51.1032 93.1607 51.3627 93.3943 51.5963C93.6019 51.8558 93.8095 52.0634 94.0171 52.271C94.1987 52.4786 94.3804 52.6603 94.5621 52.816C94.8994 53.1534 95.1589 53.4129 95.3665 53.5945C95.7818 54.0097 95.9115 54.2174 95.9115 54.2174L95.7818 54.1654Z" fill="white"/>
<path d="M62.8761 40.0733C62.8761 40.0733 62.6685 40.0993 62.2533 40.0733C61.8381 40.0214 61.2152 39.8657 60.3848 39.6581C60.281 39.6321 60.1772 39.6062 60.0734 39.5802C59.9696 39.5802 59.8398 39.5283 59.7101 39.5283C59.4765 39.4764 59.217 39.4245 58.9575 39.3726C58.672 39.3467 58.3865 39.2948 58.1011 39.2429C57.7897 39.191 57.4783 39.191 57.1409 39.165C56.8035 39.165 56.4402 39.165 56.0509 39.165C55.6617 39.191 55.2465 39.165 54.8053 39.2688C53.923 39.3467 52.8849 39.5283 51.7171 39.8138C49.3555 40.3588 46.5788 41.319 43.6982 42.2273C40.8176 43.1356 37.7813 44.0179 34.9267 44.2515C33.4994 44.3812 32.1499 44.3293 30.9561 44.1217C30.3593 43.966 29.8143 43.8622 29.3212 43.6546C29.0877 43.5508 28.8282 43.4729 28.6205 43.3691C28.4129 43.2653 28.2053 43.1356 28.0237 43.0317C27.6344 42.8501 27.3489 42.5646 27.0635 42.383C26.778 42.2013 26.5963 41.9937 26.4147 41.812C26.1033 41.4747 25.9216 41.319 25.9216 41.319C25.9216 41.319 26.1552 41.4228 26.5444 41.6304C26.752 41.7342 26.9856 41.8639 27.297 41.9677C27.6084 42.0716 27.9199 42.2273 28.3351 42.2792C28.5167 42.3051 28.7243 42.357 28.932 42.4089C29.1396 42.4608 29.3731 42.4608 29.6067 42.4608C30.0738 42.5127 30.5669 42.4608 31.0859 42.4608C32.1239 42.357 33.2658 42.0975 34.4336 41.6823C36.7952 40.8778 39.3643 39.4764 42.0373 38.101C44.7362 36.7516 47.5909 35.3502 50.5493 34.6755C53.4818 33.9488 56.2326 34.1305 58.2049 34.8571C58.698 35.0647 59.1391 35.2464 59.5284 35.48C59.9177 35.7135 60.281 35.9471 60.5924 36.1806C60.9038 36.4401 61.1633 36.6737 61.3969 36.9073C61.5007 37.0111 61.6305 37.1408 61.7083 37.2446C61.7862 37.3744 61.89 37.4782 61.9678 37.582C62.6166 38.4384 62.7983 39.1391 62.9021 39.5543C62.9799 39.9695 62.954 40.1771 62.954 40.1771L62.8761 40.0733Z" fill="white"/>
<path d="M17.5172 6.2378C17.3355 6.91253 17.1798 7.56131 17.1019 8.23604C17.0241 8.93672 17.0241 9.68931 17.1539 10.5716C17.3615 12.2844 18.0102 14.2308 18.7628 15.7878C19.6971 17.812 21.0465 19.7843 22.7334 21.4971C23.5638 22.3535 24.498 23.158 25.5361 23.8327C26.4963 24.4815 27.7419 25.0265 28.8059 25.3638C27.6641 25.4417 26.2627 25.1303 25.0949 24.7929C23.8233 24.4296 22.5776 23.9365 21.4098 23.3396C19.0223 22.1459 16.7905 20.6407 14.7923 18.6684C13.2612 17.1892 11.5224 14.9314 10.692 11.9471C10.2768 10.4678 10.147 8.75506 10.4844 7.14609C10.7958 5.51117 11.5484 4.03195 12.4826 2.9939C12.4826 2.9939 12.5345 2.942 12.6383 2.83819C12.7422 2.73439 12.8719 2.57868 13.0536 2.42297C13.2352 2.26727 13.4688 2.11156 13.7023 1.9299C13.8321 1.85205 13.9619 1.77419 14.0916 1.69634C14.2214 1.61849 14.3771 1.56659 14.5068 1.48873C14.7923 1.35898 15.1037 1.25517 15.3892 1.17732C15.7006 1.12542 15.986 1.09946 16.2715 1.12542C16.8165 1.17732 17.3096 1.38493 17.6469 1.85205C17.9583 2.31917 18.0621 2.83819 18.0621 3.33127C18.0621 3.59078 18.0102 3.82434 17.9843 4.0579C17.9843 4.29146 17.9064 4.52502 17.8545 4.73263C17.8545 4.83644 17.8026 4.94024 17.7767 5.04404C17.7767 5.14785 17.7507 5.25165 17.7248 5.32951C17.6988 5.51117 17.6469 5.66687 17.595 5.79663C17.5431 6.05614 17.4912 6.21185 17.4912 6.21185L17.5172 6.2378Z" fill="white"/>
</g>
<defs>
<clipPath id="clip0_12127_4739">
<rect width="160.404" height="67.5769" fill="white" transform="matrix(-1 0 0 1 161 0.710938)"/>
</clipPath>
</defs>
</svg>
