<svg width="161" height="69" viewBox="0 0 161 69" fill="none" xmlns="http://www.w3.org/2000/svg">
<g clip-path="url(#clip0_12127_4753)">
<path d="M106.193 17.9387C104.74 21.9611 102.586 26.1133 99.6793 30.006C96.7727 33.8987 93.1655 37.5318 89.1431 40.646C85.1466 43.7861 80.7608 46.3812 76.401 48.4833C75.337 49.0023 74.1952 49.4953 73.1052 49.9625C72.0153 50.4296 70.9513 50.8967 69.9132 51.286C69.3942 51.4936 68.8752 51.6752 68.3562 51.8829C67.8372 52.0645 67.3181 52.2202 66.7991 52.4019C65.787 52.7652 64.749 53.0247 63.7628 53.3361C53.4083 56.2946 42.379 57.2548 31.2979 59.3049C29.8965 59.5644 28.6249 59.798 27.2235 59.9796C25.8481 60.1613 24.4727 60.317 23.0714 60.4727C20.2946 60.7841 17.4659 61.1215 14.6632 61.6146C12.068 62.0557 9.23937 62.6786 6.56639 63.6907C5.24288 64.2097 3.94532 64.8066 2.80347 65.5851C1.66162 66.3377 0.675475 67.2719 -0.0252075 68.284C1.55781 66.3377 4.10103 65.0401 6.74805 64.2097C9.42102 63.3792 12.2238 62.9381 14.8189 62.6786C17.6216 62.3931 20.4243 62.2633 23.2271 62.1336C24.6284 62.0817 26.0298 62.0298 27.4311 61.926C28.8325 61.8481 30.2858 61.6924 31.6352 61.5367C42.6904 60.317 53.7457 60.317 64.9306 58.0852C65.9946 57.8516 67.1105 57.644 68.2264 57.3586C68.7973 57.2288 69.3683 57.0731 69.9392 56.9174C70.5101 56.7357 71.081 56.58 71.6779 56.3984C72.8717 56.061 74.0135 55.6458 75.2073 55.2306C76.401 54.7894 77.5688 54.3742 78.7886 53.8811C83.6414 51.9088 88.5721 49.2618 93.1395 45.9141C97.681 42.5664 101.859 38.518 105.103 33.9765C108.373 29.461 110.709 24.4524 111.928 19.6515C111.928 19.6515 111.98 19.366 112.11 18.8989C112.214 18.4058 112.395 17.7311 112.499 16.8747C112.811 15.1879 112.992 12.9301 112.966 10.6724C112.914 8.41461 112.603 6.18281 112.11 4.54789C111.617 2.91296 111.02 1.87492 110.449 1.90087C109.878 2.00467 109.567 3.14652 109.281 4.72955C108.996 6.31257 108.684 8.33676 108.295 10.3091C107.88 12.2813 107.413 14.2017 106.972 15.629C106.79 16.3297 106.556 16.9266 106.427 17.3159C106.297 17.7311 106.219 17.9647 106.219 17.9647L106.193 17.9387Z" fill="white"/>
<path d="M158.639 18.9241C158.639 18.9241 158.535 19.1317 158.094 19.5729C157.887 19.7805 157.575 20.04 157.186 20.3514C156.771 20.6369 156.252 21.0002 155.603 21.3895C154.305 22.1421 152.411 23.0244 149.79 23.8808C147.169 24.7372 143.769 25.5676 139.487 26.2683C135.205 26.969 130.482 27.488 125.811 28.1108C121.14 28.7077 116.572 29.4603 112.576 30.4724C108.579 31.4585 105.232 32.7821 102.896 33.9499C101.754 34.5208 100.82 35.0398 100.223 35.4291C99.6002 35.7924 99.2888 36 99.2888 36C99.2888 36 99.5742 35.7405 100.093 35.2474C100.612 34.7543 101.417 34.0796 102.455 33.2492C104.557 31.6402 107.749 29.6679 111.719 27.9811C115.664 26.2943 120.309 24.841 124.98 23.751C129.678 22.6351 134.401 21.7787 138.605 21.0781C142.809 20.4033 146.131 19.9103 148.752 19.5729C151.373 19.2355 153.319 19.002 154.772 18.8982C155.499 18.8463 156.096 18.8203 156.589 18.8203C157.082 18.8203 157.471 18.8203 157.757 18.8203C158.354 18.8722 158.587 18.9501 158.587 18.9501L158.639 18.9241Z" fill="white"/>
<path d="M120.831 4.52281C120.13 6.44319 119.507 8.70095 118.755 10.9847C118.002 13.2424 117.146 15.5002 116.315 17.2908C115.277 19.6523 113.954 21.9101 112.267 24.0381C111.852 24.5312 111.436 25.0761 110.969 25.5692C110.502 26.0363 110.035 26.5554 109.516 27.0225C109.023 27.4377 108.504 27.8789 107.959 28.32C107.388 28.7093 106.817 29.0986 106.324 29.4878C106.921 29.3062 107.57 29.0467 108.218 28.7872C108.867 28.4757 109.516 28.1643 110.113 27.8789C110.762 27.5415 111.359 27.1782 112.007 26.8408C112.63 26.4775 113.201 26.0623 113.824 25.699C116.211 24.064 118.391 22.1696 120.39 20.0157C121.947 18.3807 123.607 16.0711 124.853 13.4241C126.099 10.803 126.825 7.81861 126.748 5.24944C126.748 5.24944 126.67 4.05568 126.306 2.88788C125.839 1.69413 125.087 0.604176 123.971 0.656079C122.855 0.759883 122.102 1.77198 121.635 2.68027C121.09 3.61451 120.831 4.4709 120.831 4.4709V4.52281Z" fill="white"/>
<path d="M78.7383 20.6912C78.7383 20.6912 78.92 20.6653 79.2573 20.6912C79.5947 20.7431 80.0878 20.8988 80.7366 21.2621C81.3334 21.6514 82.112 22.2742 82.8386 23.3123C83.5912 24.3244 84.3438 25.7777 84.8887 27.6721C85.4597 29.5665 85.6932 31.7983 85.6413 33.9782C85.5894 36.1581 85.2261 38.3121 84.6811 40.1287C84.1102 41.9712 83.3836 43.4504 82.7607 44.4366C82.4753 44.9296 82.1639 45.293 81.9822 45.5525C81.8005 45.812 81.6967 45.9417 81.6967 45.9417C81.6967 45.9417 81.7227 45.786 81.7746 45.4746C81.8265 45.1632 81.9303 44.748 81.9822 44.177C82.112 43.0871 82.1639 41.556 82.0601 39.8432C81.8006 36.4176 80.7625 32.3433 79.8023 29.1513C78.8681 25.9593 78.4788 24.013 78.4788 22.6635C78.4528 22.0147 78.5047 21.5217 78.5826 21.1843C78.6605 20.8469 78.7383 20.6912 78.7383 20.6912Z" fill="white"/>
<path d="M75.7806 51.8309C75.7806 51.8309 76.0401 52.0125 76.7927 52.272C77.1561 52.4018 77.6491 52.5575 78.2979 52.7132C78.9467 52.8949 79.7512 53.1025 80.7114 53.2841C82.6577 53.7253 85.3307 54.2184 88.9379 54.8931C92.5711 55.5678 97.1385 56.3723 102.977 57.3325C108.817 58.2668 115.408 59.1751 122.052 59.6162C125.373 59.8238 128.695 59.9017 131.939 59.8238C135.183 59.72 138.297 59.4346 141.204 58.9934C147.043 58.1111 151.921 56.4502 155.243 55.0229C156.904 54.2703 158.202 53.6474 159.058 53.1803C159.914 52.7132 160.407 52.4537 160.407 52.4537C160.407 52.4537 159.888 52.6354 158.98 52.9727C158.072 53.336 156.696 53.7513 154.984 54.2703C151.532 55.2305 146.627 56.1907 140.97 56.3723C138.141 56.4761 135.131 56.4502 132.017 56.2426C128.903 56.035 125.711 55.6716 122.519 55.2305C116.135 54.3481 109.699 53.1025 103.834 52.1682C97.9689 51.234 93.2458 50.715 89.4829 50.5333C85.7199 50.3517 82.9172 50.5074 80.893 50.715C79.8809 50.8447 79.0505 50.9745 78.4017 51.1042C77.727 51.2599 77.2339 51.3897 76.8446 51.5195C76.0921 51.753 75.8325 51.9087 75.8325 51.9087L75.7806 51.8309Z" fill="white"/>
<path d="M65.2182 54.1654C65.2182 54.1654 65.4258 54.2693 66.0487 54.3212C66.3601 54.3471 66.7493 54.3212 67.2943 54.2693C67.5538 54.2433 67.8393 54.1914 68.1767 54.0876C68.4881 53.9838 68.8514 53.9059 69.2407 53.7243C69.6299 53.5686 70.0451 53.3869 70.4604 53.1274C70.9015 52.8938 71.3168 52.5565 71.7839 52.1932C72.6662 51.4406 73.6264 50.3766 74.379 48.9752C75.1316 47.5738 75.7544 45.8092 75.8842 43.7331C75.962 42.695 75.8842 41.5791 75.7025 40.4373C75.4949 39.2695 75.1056 38.0757 74.5087 36.9079C73.315 34.5463 71.187 32.3664 68.514 31.2505C67.1905 30.6796 65.8151 30.3423 64.4137 30.1865C63.7131 30.1606 63.0124 30.0827 62.3636 30.1346C62.0262 30.1346 61.6889 30.1346 61.3515 30.1865L60.3394 30.3163C57.6924 30.6796 54.9675 31.7436 52.9693 33.7159C51.9831 34.7021 51.2046 35.8958 50.7634 37.1674C50.3222 38.465 50.2444 39.8404 50.5299 41.112C50.8153 42.3836 51.516 43.4995 52.3983 44.278C53.2807 45.0566 54.2928 45.5237 55.227 45.7313L55.5644 45.8351L55.9018 45.887C56.1353 45.913 56.3689 45.9389 56.5765 45.9908C57.0176 45.9908 57.4588 46.0427 57.8481 45.9908C58.6526 45.9389 59.3792 45.8092 60.028 45.6794C61.3255 45.342 62.2857 44.9787 62.9605 44.6933C63.6093 44.4078 63.9726 44.2521 63.9726 44.2521C63.9726 44.2521 63.5833 44.3299 62.9086 44.4857C62.2338 44.6414 61.1958 44.7971 59.9501 44.8749C59.3273 44.8749 58.6266 44.8749 57.9 44.7711C57.5367 44.7452 57.1734 44.6414 56.81 44.5635C56.6284 44.5116 56.4467 44.4338 56.2651 44.3818L55.9796 44.304L55.7201 44.1742C54.2928 43.5774 53.1509 42.2539 53.0731 40.6968C52.9693 39.1397 53.8516 37.4788 55.2789 36.4408C56.7322 35.3768 58.6526 34.8318 60.6768 34.7799H61.4294L62.1819 34.8059C62.701 34.8059 63.1681 34.9097 63.6352 34.9616C64.5694 35.1432 65.4518 35.4546 66.2303 35.8439C67.7874 36.6224 68.9292 37.92 69.6559 39.3214C70.0192 40.022 70.2787 40.7746 70.4344 41.5013C70.5901 42.2279 70.6939 42.9286 70.6939 43.6033C70.7458 44.9528 70.4863 46.1465 70.1749 47.1846C69.8375 48.2226 69.4223 49.079 68.9811 49.8056C68.7476 50.143 68.54 50.5063 68.2805 50.7918C68.0729 51.1032 67.8393 51.3627 67.6057 51.5963C67.3981 51.8558 67.1905 52.0634 66.9829 52.271C66.8012 52.4786 66.6196 52.6603 66.4379 52.816C66.1006 53.1534 65.8411 53.4129 65.6334 53.5945C65.2182 54.0097 65.0885 54.2174 65.0885 54.2174L65.2182 54.1654Z" fill="white"/>
<path d="M98.1239 40.0733C98.1239 40.0733 98.3315 40.0993 98.7467 40.0733C99.1619 40.0214 99.7848 39.8657 100.615 39.6581C100.719 39.6321 100.823 39.6062 100.927 39.5802C101.03 39.5802 101.16 39.5283 101.29 39.5283C101.523 39.4764 101.783 39.4245 102.043 39.3726C102.328 39.3467 102.613 39.2948 102.899 39.2429C103.21 39.191 103.522 39.191 103.859 39.165C104.196 39.165 104.56 39.165 104.949 39.165C105.338 39.191 105.754 39.165 106.195 39.2688C107.077 39.3467 108.115 39.5283 109.283 39.8138C111.644 40.3588 114.421 41.319 117.302 42.2273C120.182 43.1356 123.219 44.0179 126.073 44.2515C127.501 44.3812 128.85 44.3293 130.044 44.1217C130.641 43.966 131.186 43.8622 131.679 43.6546C131.912 43.5508 132.172 43.4729 132.379 43.3691C132.587 43.2653 132.795 43.1356 132.976 43.0317C133.366 42.8501 133.651 42.5646 133.937 42.383C134.222 42.2013 134.404 41.9937 134.585 41.812C134.897 41.4747 135.078 41.319 135.078 41.319C135.078 41.319 134.845 41.4228 134.456 41.6304C134.248 41.7342 134.014 41.8639 133.703 41.9677C133.392 42.0716 133.08 42.2273 132.665 42.2792C132.483 42.3051 132.276 42.357 132.068 42.4089C131.86 42.4608 131.627 42.4608 131.393 42.4608C130.926 42.5127 130.433 42.4608 129.914 42.4608C128.876 42.357 127.734 42.0975 126.566 41.6823C124.205 40.8778 121.636 39.4764 118.963 38.101C116.264 36.7516 113.409 35.3502 110.451 34.6755C107.518 33.9488 104.767 34.1305 102.795 34.8571C102.302 35.0647 101.861 35.2464 101.472 35.48C101.082 35.7135 100.719 35.9471 100.408 36.1806C100.096 36.4401 99.8367 36.6737 99.6031 36.9073C99.4993 37.0111 99.3695 37.1408 99.2917 37.2446C99.2138 37.3744 99.11 37.4782 99.0322 37.582C98.3834 38.4384 98.2017 39.1391 98.0979 39.5543C98.0201 39.9695 98.046 40.1771 98.046 40.1771L98.1239 40.0733Z" fill="white"/>
<path d="M143.483 6.2378C143.665 6.91253 143.82 7.56131 143.898 8.23604C143.976 8.93672 143.976 9.68931 143.846 10.5716C143.639 12.2844 142.99 14.2308 142.237 15.7878C141.303 17.812 139.953 19.7843 138.267 21.4971C137.436 22.3535 136.502 23.158 135.464 23.8327C134.504 24.4815 133.258 25.0265 132.194 25.3638C133.336 25.4417 134.737 25.1303 135.905 24.7929C137.177 24.4296 138.422 23.9365 139.59 23.3396C141.978 22.1459 144.209 20.6407 146.208 18.6684C147.739 17.1892 149.478 14.9314 150.308 11.9471C150.723 10.4678 150.853 8.75506 150.516 7.14609C150.204 5.51117 149.452 4.03195 148.517 2.9939C148.517 2.9939 148.465 2.942 148.362 2.83819C148.258 2.73439 148.128 2.57868 147.946 2.42297C147.765 2.26727 147.531 2.11156 147.298 1.9299C147.168 1.85205 147.038 1.77419 146.908 1.69634C146.779 1.61849 146.623 1.56659 146.493 1.48873C146.208 1.35898 145.896 1.25517 145.611 1.17732C145.299 1.12542 145.014 1.09946 144.729 1.12542C144.184 1.17732 143.69 1.38493 143.353 1.85205C143.042 2.31917 142.938 2.83819 142.938 3.33127C142.938 3.59078 142.99 3.82434 143.016 4.0579C143.016 4.29146 143.094 4.52502 143.145 4.73263C143.145 4.83644 143.197 4.94024 143.223 5.04404C143.223 5.14785 143.249 5.25165 143.275 5.32951C143.301 5.51117 143.353 5.66687 143.405 5.79663C143.457 6.05614 143.509 6.21185 143.509 6.21185L143.483 6.2378Z" fill="white"/>
</g>
<defs>
<clipPath id="clip0_12127_4753">
<rect width="160.404" height="67.5769" fill="white" transform="translate(0 0.710938)"/>
</clipPath>
</defs>
</svg>
