<svg width="264" height="76" viewBox="0 0 264 76" fill="none" xmlns="http://www.w3.org/2000/svg">
<path d="M211.125 64.5908C248.958 64.5908 263.252 75.4873 263.252 75.4873C256.457 73.4671 246.57 68.6924 214.889 68.6924C183.209 68.6924 176.413 73.6509 158.017 74.1406C139.326 74.6597 132.062 67.5293 132.031 67.498H131.969C131.969 67.498 124.715 74.661 105.982 74.1406C87.6164 73.6509 80.7904 68.6924 49.1099 68.6924C17.4297 68.6924 7.5428 73.4365 0.747559 75.4873C0.797408 75.4495 15.1382 64.5909 52.8745 64.5908C86.6057 64.5908 86.6062 72.0897 111.46 72.0898C125.061 72.0898 131.978 65.2846 132 65.2637C132 65.2637 138.917 72.0898 152.539 72.0898C177.393 72.0898 177.393 64.5908 211.125 64.5908ZM61.1411 50.2061C61.1411 50.2061 61.4782 50.4813 62.0903 51.0322C62.3964 51.2771 62.764 51.6447 63.2231 51.9814C63.6821 52.318 64.2326 52.7162 64.814 53.1445C67.2321 54.7668 70.9056 56.6034 75.3745 57.8584C79.8128 59.1746 84.9858 59.9397 90.1587 60.1846C92.7298 60.2764 95.3317 60.2458 97.811 60.0928C98.4231 60.0316 99.0047 60.0016 99.6167 59.9404C100.168 59.818 100.749 59.6953 101.3 59.6035C101.882 59.5117 102.402 59.4499 102.984 59.2969C103.565 59.1438 104.117 58.9909 104.667 58.8379C109.106 57.6135 112.841 56.3892 115.932 55.7158C117.462 55.3792 118.87 55.195 120.064 55.042C121.319 54.9502 122.391 54.9814 123.248 54.9814C124.135 54.9815 124.87 55.1959 125.452 55.3184C126.033 55.4714 126.462 55.6237 126.798 55.7461C127.441 56.0216 127.655 56.2061 127.655 56.2061C127.643 56.2159 127.396 56.4285 126.829 56.7871C126.523 56.9707 126.125 57.1546 125.635 57.3994C125.146 57.6443 124.533 57.8277 123.798 58.2256C123.064 58.5929 122.207 58.9602 121.197 59.3887C120.156 59.8784 118.993 60.3684 117.616 60.9805C114.861 62.1742 111.34 63.7964 106.351 65.1738C105.708 65.3269 105.065 65.511 104.422 65.6641C103.78 65.817 103.045 65.8786 102.341 66.001C101.637 66.0928 100.933 66.1845 100.199 66.2764C99.4948 66.307 98.7601 66.3369 98.0562 66.3369C95.2401 66.3369 92.3933 66.0926 89.6079 65.6641C84.037 64.7458 78.6498 63.0619 74.2114 60.8887C69.7119 58.746 66.2834 56.0834 64.1714 53.9102C63.6511 53.3593 63.1923 52.8386 62.7944 52.4102C62.3966 51.9817 62.1203 51.5535 61.8755 51.2168C61.4164 50.574 61.1411 50.2061 61.1411 50.2061ZM202.218 51.2168C201.973 51.5229 201.698 51.9818 201.3 52.4102C200.902 52.8387 200.443 53.3592 199.922 53.9102C197.81 56.0833 194.352 58.7768 189.883 60.8887C185.445 63.0925 180.058 64.7764 174.487 65.6641C171.701 66.0926 168.855 66.3369 166.039 66.3369C165.304 66.3063 164.6 66.2764 163.896 66.2764C163.192 66.1846 162.457 66.0928 161.753 66.001C161.049 65.9091 160.314 65.8171 159.671 65.6641C158.998 65.5111 158.386 65.3268 157.744 65.1738C152.724 63.7965 149.204 62.1742 146.449 60.9805C145.071 60.3683 143.908 59.909 142.898 59.3887C141.888 58.9602 141.031 58.5928 140.296 58.2256C139.562 57.8277 138.949 57.6443 138.459 57.3994C137.97 57.1852 137.571 56.9708 137.265 56.7871C136.662 56.4251 136.445 56.212 136.439 56.2061H136.47C136.472 56.2046 136.686 55.9901 137.327 55.7461C137.663 55.5931 138.092 55.4714 138.673 55.3184C139.255 55.1653 140.02 54.9815 140.877 54.9814C141.765 54.9508 142.837 54.9196 144.061 55.042C145.224 55.195 146.663 55.3792 148.193 55.7158C151.315 56.3892 155.019 57.6441 159.458 58.8379C160.008 58.9909 160.56 59.1438 161.141 59.2969C161.692 59.4499 162.243 59.4811 162.793 59.6035C163.344 59.7259 163.895 59.818 164.477 59.9404C165.089 60.0016 165.671 60.0316 166.283 60.0928C168.762 60.2458 171.364 60.2764 173.935 60.1846C179.108 59.9397 184.281 59.1745 188.719 57.8584C193.188 56.6034 196.862 54.7974 199.28 53.1445C199.861 52.716 200.412 52.3181 200.872 51.9814C201.331 51.6448 201.698 51.3077 202.004 51.0322C202.609 50.518 202.945 50.2129 202.953 50.2061C202.948 50.212 202.704 50.5494 202.218 51.2168ZM132.031 0.00585938C132.031 0.864895 132.37 8.08812 140.51 20.1768C144.857 26.6353 143.571 31.625 139.224 36.6143C136.592 39.6753 132.031 47.8479 132.031 64.5293C132.031 47.8481 127.501 39.6448 124.838 36.6143C120.492 31.625 119.206 26.6659 123.552 20.1768C131.693 8.08815 132.031 0.864894 132.031 0.00585938ZM154.407 34.4443C155.876 33.8322 157.774 33.4035 160.1 34.0156C161.233 34.3217 162.457 34.9649 163.467 35.9443C163.957 36.4645 164.355 36.9544 164.814 37.75C165.151 38.4845 165.365 39.0356 165.518 39.8008C165.855 41.2698 165.763 42.892 165.334 44.2998C164.875 45.7078 164.14 46.9329 163.283 47.9736C161.538 50.0242 159.426 51.4633 156.825 52.3203L157.008 52.2588C154.958 53.024 153.182 52.9935 151.56 52.9629C149.938 52.9017 148.468 52.6876 147.06 52.5039C144.305 52.1366 141.826 51.8603 139.806 52.1357C137.786 52.3806 136.316 53.4218 135.643 54.4932C135.215 54.9523 135.092 55.4726 134.877 55.748C134.724 56.0541 134.633 56.2383 134.633 56.2383C134.633 56.2383 134.664 56.0543 134.725 55.7178C134.817 55.3811 134.817 54.8299 135.123 54.2178C135.49 52.9322 136.898 51.1263 139.224 50.208C141.52 49.2592 144.336 48.9529 147.152 48.708C148.56 48.5856 149.999 48.4942 151.345 48.3105C152.661 48.1269 153.947 47.7901 154.712 47.3311L154.896 47.2695C156.212 46.5961 157.559 45.4018 158.355 44.208C158.753 43.6267 159.028 43.015 159.151 42.5254C159.273 42.0356 159.243 41.6372 159.151 41.2393C159.151 41.0862 158.998 40.8106 158.998 40.7188C159.028 40.7188 158.906 40.5349 158.845 40.4736C158.692 40.2901 158.508 40.1374 158.233 39.9844C157.682 39.7089 156.855 39.6172 156.151 39.709C155.784 39.7091 155.477 39.8314 155.171 39.8926C154.866 39.9842 154.774 39.9536 154.59 40.0146C154.254 40.1065 153.917 40.3518 153.733 40.6885C153.335 41.3312 153.457 42.066 153.488 42.5557C153.58 43.0454 153.58 43.3516 153.58 43.3516L153.519 43.29C153.519 43.29 153.274 43.3508 152.693 43.2285C152.417 43.1367 151.988 42.9843 151.56 42.6172C151.132 42.2499 150.58 41.6681 150.335 40.75C150.091 39.8623 150.152 38.6065 150.917 37.3516C151.285 36.7395 151.897 36.0661 152.448 35.6377C152.999 35.1786 153.672 34.7504 154.407 34.4443ZM104.054 33.9482C106.35 33.3362 108.248 33.7648 109.748 34.377C110.482 34.683 111.156 35.1122 111.707 35.5713C112.257 35.9998 112.87 36.6731 113.237 37.2852C114.002 38.5401 114.063 39.7644 113.818 40.6826C113.573 41.6007 113.053 42.1825 112.594 42.5498C112.135 42.9171 111.737 43.0703 111.461 43.1621C110.89 43.2825 110.643 43.2246 110.635 43.2227L110.574 43.2842C110.574 43.2764 110.575 43.0012 110.666 42.4883C110.696 41.9985 110.818 41.2638 110.42 40.6211C110.237 40.3152 109.9 40.0402 109.564 39.9482C109.38 39.887 109.288 39.917 108.982 39.8252C108.706 39.764 108.37 39.6722 108.002 39.6416C107.299 39.5804 106.472 39.6417 105.921 39.917C105.646 40.0394 105.462 40.193 105.309 40.4072C105.248 40.4988 105.126 40.6817 105.156 40.6523C105.155 40.7143 105.003 40.9886 105.002 41.1719C104.911 41.5698 104.911 41.9377 105.002 42.458C105.125 42.9478 105.4 43.5294 105.798 44.1416C106.594 45.3353 107.911 46.5287 109.257 47.2021L109.441 47.2637C110.206 47.7228 111.492 48.0595 112.808 48.2432C114.124 48.4574 115.594 48.5182 117.001 48.6406C119.817 48.8855 122.664 49.1918 124.929 50.1406C127.255 51.0588 128.663 52.8648 129.031 54.1504C129.337 54.7626 129.337 55.3137 129.429 55.6504C129.49 55.9871 129.521 56.1709 129.521 56.1709C129.521 56.1709 129.429 56.0174 129.276 55.6807C129.092 55.4051 128.939 54.8847 128.51 54.4258C127.837 53.3853 126.337 52.3142 124.348 52.0693C122.328 51.7939 119.848 52.0692 117.093 52.4365C115.685 52.6202 114.216 52.8343 112.594 52.8955C110.972 52.9261 109.196 52.9566 107.145 52.1914L107.33 52.2529C104.728 51.3959 102.615 49.9571 100.871 47.9062C100.014 46.8656 99.279 45.6719 98.8198 44.2334C98.3607 42.8254 98.2995 41.2026 98.6362 39.7334C98.7893 38.9683 99.0343 38.4478 99.3403 37.6826C99.7688 36.8869 100.167 36.3972 100.687 35.877C101.697 34.8669 102.922 34.2543 104.054 33.9482Z" fill="url(#paint0_linear_12127_4504)"/>
<defs>
<linearGradient id="paint0_linear_12127_4504" x1="0.702637" y1="68.1535" x2="206.146" y2="68.1535" gradientUnits="userSpaceOnUse">
<stop stop-color="#EFC371"/>
<stop offset="1" stop-color="#C59A49"/>
</linearGradient>
</defs>
</svg>
